# xmcd CD database file
#
# Track frame offsets:
#	183
#	9975
#	24293
#	38820
#	52070
#	70930
#	82370
#	97315
#	108610
#	122850
#	136455
#	150623
#	163440
#	180538
#	192640
#
# Disc length: 2787 seconds
#
# Revision: 2
# Processed by: cddbd v1.4b41PL1 Copyright (c) Steve Scherf et al.
# Submitted via: Feurio! 1.60 - http://www.feurio.com
#
DISCID=b30ae10f,dd0ae10f
DTITLE=Various Artist - Trucker Songs, 3 Folge
DYEAR=1900
DGENRE=
TTITLE0=Nitty Gritty Dirt Band - High Horse
TTITLE1=Lynn Anderson - Cry
TTITLE2=The Osmonds - Yes Ma'am
TTITLE3=Johnny Rodriguez - Desperado
TTITLE4=George Jones - Bartender Blues
TTITLE5=Faron Young - Wine me up
TTITLE6=Atlanta - Good time Chariot
TTITLE7=Karen Taylor-Good - Country Boys Song
TTITLE8=Freddy Fender - The Rain came
TTITLE9=ronny Robbins - El Paso
TTITLE10=Denise Price - Long Hard Fall
TTITLE11=Eddy Raven - I don't like Planes
TTITLE12=Tex Williams - Deck of Cards
TTITLE13=Boxcar Willie - hobo Heaven
TTITLE14=Mickey Gilley - You need a Lady in your Life
EXTD=
EXTT0=
EXTT1=
EXTT2=
EXTT3=
EXTT4=
EXTT5=
EXTT6=
EXTT7=
EXTT8=
EXTT9=
EXTT10=
EXTT11=
EXTT12=
EXTT13=
EXTT14=
PLAYORDER=
